<svg width="97" height="24" viewBox="0 0 97 24" fill="none" xmlns="http://www.w3.org/2000/svg">
<path opacity="0.8" d="M21.9846 16.2064V21.1649C20.1821 22.75 15.875 23.6929 12.6683 23.6929C9.46571 23.6929 0.601074 21.7095 0.601074 12.39C0.601074 3.07051 9.03869 1.06274 12.4425 1.06274C15.8504 1.06274 19.48 1.68051 21.5822 3.07051V7.43153C21.5822 7.97615 20.8308 7.92738 20.8308 7.43153C20.7816 6.68776 18.7779 2.2292 13.7687 2.32674C8.36122 2.43648 4.70697 6.64305 4.70697 12.1908C4.70697 17.7386 8.25857 22.502 13.6209 22.3517C15.3618 22.3029 17.1766 21.7583 18.0552 21.0348L18.0758 16.2064C18.0758 14.8205 17.2259 14.3246 16.3759 14.3246C15.8216 14.3246 15.8216 13.5321 16.3759 13.5321H23.6844C24.2346 13.5321 24.2346 14.3734 23.6844 14.3246C22.8386 14.3246 21.9846 14.8205 21.9846 16.2064ZM71.2595 7.43559C71.2595 7.98021 70.7093 7.93144 70.7093 7.43559C70.6559 6.69182 68.6563 2.08288 63.6471 2.18449C58.2397 2.29016 54.5813 6.64711 54.5813 12.1949C54.5813 17.7427 58.0877 22.6524 63.4459 22.5061C68.8041 22.3557 71.358 17.1046 71.5592 16.4096C71.7604 15.7146 72.1094 15.8162 72.1094 16.3608V20.4252C69.9086 22.0103 65.7494 23.6969 62.5468 23.6969C59.3442 23.6969 50.4795 21.7136 50.4795 12.3941C50.4795 3.07051 58.8925 0.843262 62.2963 0.843262C65.7042 0.843262 69.1572 1.68458 71.2636 3.07051V7.43559H71.2595ZM48.5744 1.38788C49.375 1.38788 49.375 2.13165 48.5744 2.13165C47.7245 2.13165 46.8745 2.6275 46.8745 4.01343L46.776 14.8449C46.776 20.0309 42.5264 23.8433 37.2832 23.8433C32.0399 23.8433 27.9464 20.0309 27.9464 14.8449V4.01343C27.9464 2.62343 27.0923 2.13165 26.2424 2.13165C25.4418 2.13165 25.4418 1.38788 26.2424 1.38788H33.6536C34.4542 1.38788 34.4542 2.13165 33.6536 2.13165C32.7995 2.13165 31.9496 2.6275 31.9496 4.01343L31.9414 16.1089C31.9414 19.7667 34.9633 22.7337 38.6586 22.7337C42.354 22.7337 45.3513 19.023 45.3513 15.3691L45.1706 4.01343C45.1706 2.62343 44.3207 2.13165 43.4666 2.13165C42.6701 2.13165 42.6701 1.38788 43.4666 1.38788H48.5744ZM95.747 7.43559C95.747 7.98021 95.1968 7.93144 95.1968 7.43559C95.1476 6.69182 93.1439 2.08288 88.1347 2.18449C82.7272 2.29016 79.0689 6.64711 79.0689 12.1949C79.0689 17.7427 82.5753 22.6524 87.9335 22.5061C93.2917 22.3598 95.8456 17.1046 96.0468 16.4096C96.248 15.7146 96.6011 15.8162 96.6011 16.3608V20.4252C94.3962 22.0103 90.241 23.6969 87.0343 23.6969C83.8317 23.6969 74.9671 21.7136 74.9671 12.3941C74.9671 3.07051 83.3801 0.843262 86.788 0.843262C90.1918 0.843262 93.6489 1.68458 95.7512 3.07051V7.43559H95.747Z" fill="#718087"/>
</svg>
